<svg width="25" height="25" viewBox="0 0 25 25" fill="none" xmlns="http://www.w3.org/2000/svg">
<g id="Icon pack">
<path id="Vector" d="M9.83282 16.4188L5.91382 12.4998C5.72629 12.3123 5.47198 12.207 5.20682 12.207C4.94165 12.207 4.68735 12.3123 4.49982 12.4998C4.31235 12.6873 4.20703 12.9416 4.20703 13.2068C4.20703 13.472 4.31235 13.7263 4.49982 13.9138L8.41882 17.8328C8.60455 18.0186 8.82506 18.166 9.06776 18.2666C9.31047 18.3671 9.57061 18.4189 9.83332 18.4189C10.096 18.4189 10.3562 18.3671 10.5989 18.2666C10.8416 18.166 11.0621 18.0186 11.2478 17.8328L20.4998 8.58081C20.6873 8.39328 20.7926 8.13897 20.7926 7.87381C20.7926 7.60864 20.6873 7.35434 20.4998 7.16681C20.3123 6.97934 20.058 6.87402 19.7928 6.87402C19.5277 6.87402 19.2733 6.97934 19.0858 7.16681L9.83282 16.4188Z" fill="#3A4F39"/>
</g>
</svg>
