<svg width="25" height="25" viewBox="0 0 25 25" fill="none" xmlns="http://www.w3.org/2000/svg">
<g id="Icon pack">
<path id="Vector" d="M18.4998 6.49982C18.3123 6.31235 18.058 6.20703 17.7928 6.20703C17.5277 6.20703 17.2733 6.31235 17.0858 6.49982L12.4998 11.0858L7.91382 6.49982C7.72629 6.31235 7.47198 6.20703 7.20682 6.20703C6.94165 6.20703 6.68735 6.31235 6.49982 6.49982C6.31235 6.68735 6.20703 6.94165 6.20703 7.20682C6.20703 7.47198 6.31235 7.72629 6.49982 7.91382L11.0858 12.4998L6.49982 17.0858C6.31235 17.2733 6.20703 17.5277 6.20703 17.7928C6.20703 18.058 6.31235 18.3123 6.49982 18.4998C6.68735 18.6873 6.94165 18.7926 7.20682 18.7926C7.47198 18.7926 7.72629 18.6873 7.91382 18.4998L12.4998 13.9138L17.0858 18.4998C17.2733 18.6873 17.5277 18.7926 17.7928 18.7926C18.058 18.7926 18.3123 18.6873 18.4998 18.4998C18.6873 18.3123 18.7926 18.058 18.7926 17.7928C18.7926 17.5277 18.6873 17.2733 18.4998 17.0858L13.9138 12.4998L18.4998 7.91382C18.6873 7.72629 18.7926 7.47198 18.7926 7.20682C18.7926 6.94165 18.6873 6.68735 18.4998 6.49982Z" fill="#3A4F39"/>
</g>
</svg>
